<?xml version="1.0" encoding="utf-8"?>
<!-- Generator: Adobe Illustrator 23.0.3, SVG Export Plug-In . SVG Version: 6.00 Build 0)  -->
<svg version="1.1" id="Layer_1" xmlns="http://www.w3.org/2000/svg" xmlns:xlink="http://www.w3.org/1999/xlink" x="0px" y="0px"
	 viewBox="0 0 698.3 698.3" style="enable-background:new 0 0 698.3 698.3;" xml:space="preserve">
<style type="text/css">
	.st0{fill:#330000;}
	.st1{fill:#FF9A00;}
</style>
<rect class="st0" width="698.3" height="698.3"/>
<path class="st1" d="M337.5,436.1H229L207,506.4c-0.6,2.6-3,4.5-5.6,4.3h-54.9c-3.1,0-4.2-1.8-3.3-5.3L237,228
	c0.9-2.9,1.9-6.2,2.8-9.9c1.2-6.4,1.9-13,1.9-19.5c-0.3-1.9,1.4-3.6,3.3-3.4h74.7c2.2,0,3.4,0.8,3.8,2.4L430,505.9
	c0.9,3.2,0,4.8-2.8,4.8h-61c-2.1,0.2-4.2-1.2-4.7-3.4L337.5,436.1z M245.9,375.4h74.2c-12.2-41.7-25.9-82.8-37.1-124.7
	C271,292.7,257.9,334.6,245.9,375.4z"/>
<path class="st1" d="M493.4,246.3c-4.8,0.2-9.6-0.6-14-2.5c-4.4-1.8-8.5-4.6-11.8-8.1c-3.3-3.7-5.9-8-7.6-12.7
	c-1.7-4.7-2.5-9.7-2.3-14.7c-0.2-5,0.7-9.9,2.5-14.5c1.8-4.6,4.6-8.8,8.1-12.2c3.5-3.4,7.5-6.1,12-7.9c4.5-1.8,9.2-2.6,14-2.5
	c11.3,0,20.1,3.5,26.5,10.4c3.2,3.6,5.8,7.8,7.4,12.4c1.6,4.6,2.4,9.5,2.2,14.3c0.2,5-0.6,10.1-2.3,14.8c-1.7,4.7-4.4,9-7.8,12.7
	c-3.5,3.6-7.8,6.4-12.4,8.2C503.3,245.7,498.4,246.6,493.4,246.3z M461,505.9V275.7c0-2.9,1.2-4.3,3.8-4.3h57.8
	c2.5,0,3.8,1.4,3.8,4.3v230.2c0,3.2-1.3,4.8-3.8,4.8h-57.3C462.4,510.7,461,509.1,461,505.9z"/>
</svg>
