<?xml version="1.0" encoding="utf-8"?>
<!-- Generator: Adobe Illustrator 23.0.3, SVG Export Plug-In . SVG Version: 6.00 Build 0)  -->
<svg version="1.1" id="Layer_1" xmlns="http://www.w3.org/2000/svg" xmlns:xlink="http://www.w3.org/1999/xlink" x="0px" y="0px"
	 viewBox="0 0 684 697.5" style="enable-background:new 0 0 684 697.5;" xml:space="preserve">
<style type="text/css">
	.st0{fill:#F6711C;}
	.st1{fill:#DD4122;}
	.st2{fill:#F67819;}
	.st3{fill:url(#SVGID_1_);}
	.st4{fill:url(#SVGID_2_);}
	.st5{fill:url(#SVGID_3_);}
</style>
<linearGradient id="SVGID_1_" gradientUnits="userSpaceOnUse" x1="286.975" y1="507.8003" x2="481.0241" y2="442.3535">
	<stop  offset="7.965865e-02" style="stop-color:#FD9000"/>
	<stop  offset="0.1879" style="stop-color:#FD8C00"/>
	<stop  offset="0.2929" style="stop-color:#FE8000"/>
	<stop  offset="0.3966" style="stop-color:#FF6D00"/>
	<stop  offset="0.724" style="stop-color:#BF3504"/>
	<stop  offset="0.8826" style="stop-color:#852209"/>
	<stop  offset="1" style="stop-color:#5E150D"/>
</linearGradient>
<path class="st3" d="M243.5,557c0,0,130-71,266-51l-35-85c0,0-54-22-177,10L243.5,557z"/>
<linearGradient id="SVGID_2_" gradientUnits="userSpaceOnUse" x1="348.4165" y1="103.7295" x2="582.6022" y2="600.8909">
	<stop  offset="0" style="stop-color:#9E260A"/>
	<stop  offset="2.041288e-02" style="stop-color:#A92E09"/>
	<stop  offset="0.1004" style="stop-color:#CE4905"/>
	<stop  offset="0.1748" style="stop-color:#E95D02"/>
	<stop  offset="0.2406" style="stop-color:#F96901"/>
	<stop  offset="0.2911" style="stop-color:#FF6D00"/>
	<stop  offset="0.4317" style="stop-color:#EF5907"/>
	<stop  offset="0.6128" style="stop-color:#DF460E"/>
	<stop  offset="0.7998" style="stop-color:#D63B12"/>
	<stop  offset="1" style="stop-color:#D33713"/>
</linearGradient>
<path class="st4" d="M606.2,589h-79.1c-5.2,0-10-3.1-12-7.9l-204-480c-5-11.9,3.7-25,16.6-25h65.8l224.6,494.5
	C622,579.2,615.7,589,606.2,589z"/>
<linearGradient id="SVGID_3_" gradientUnits="userSpaceOnUse" x1="330.2552" y1="60.9027" x2="130.2252" y2="609.8448">
	<stop  offset="0" style="stop-color:#FCA402"/>
	<stop  offset="0.1632" style="stop-color:#FCA103"/>
	<stop  offset="0.2989" style="stop-color:#FB9605"/>
	<stop  offset="0.4245" style="stop-color:#FA8508"/>
	<stop  offset="0.5039" style="stop-color:#F9760B"/>
	<stop  offset="0.6528" style="stop-color:#F86506"/>
	<stop  offset="0.8285" style="stop-color:#F85902"/>
	<stop  offset="1" style="stop-color:#F85501"/>
</linearGradient>
<path class="st5" d="M87.3,589h79.8c5.1,0,9.7-3.1,11.7-7.8L393.5,76h-65.1c-17,0-32.4,9.9-39.4,25.4L75.7,571
	C71.8,579.4,78,589,87.3,589z"/>
</svg>
