<?xml version="1.0" encoding="utf-8"?>
<!-- Generator: Adobe Illustrator 23.0.3, SVG Export Plug-In . SVG Version: 6.00 Build 0)  -->
<svg version="1.1" id="Layer_1" xmlns="http://www.w3.org/2000/svg" xmlns:xlink="http://www.w3.org/1999/xlink" x="0px" y="0px"
	 viewBox="0 0 700 700" style="enable-background:new 0 0 700 700;" xml:space="preserve">
<style type="text/css">
	.st0{fill:#F9F9F9;stroke:#FFFFFF;stroke-miterlimit:10;}
</style>
<path d="M0,253.3c0-88.7,0-133,17.3-166.9c15.2-29.8,39.4-54,69.2-69.2C120.3,0,164.7,0,253.3,0h193.3c88.7,0,133,0,166.9,17.3
	c29.8,15.2,54,39.4,69.2,69.2C700,120.3,700,164.7,700,253.3v193.3c0,88.7,0,133-17.3,166.9c-15.2,29.8-39.4,54-69.2,69.2
	C579.7,700,535.3,700,446.7,700H253.3c-88.7,0-133,0-166.9-17.3c-29.8-15.2-54-39.4-69.2-69.2C0,579.7,0,535.3,0,446.7V253.3z"/>
<g>
	<path class="st0" d="M164.7,167c20.6-3.4,47.7-6.4,82.1-6.4c42.3,0,73.2,9.8,92.9,27.5c18.2,15.7,29,39.8,29,69.3
		c0,30-8.8,53.6-25.6,70.8c-22.6,24.1-59.5,36.4-101.2,36.4c-12.8,0-24.6-0.5-34.4-2.9v132.7h-42.8V167z M207.5,326.7
		c9.3,2.5,21.1,3.4,35.4,3.4c51.6,0,83-25.1,83-70.8c0-43.7-31-64.9-78.1-64.9c-18.7,0-32.9,1.5-40.3,3.4V326.7z"/>
	<path class="st0" d="M408,450c12.8,8.4,35.4,17.2,57,17.2c31.5,0,46.2-15.7,46.2-35.4c0-20.6-12.3-31.9-44.2-43.7
		c-42.8-15.2-62.9-38.8-62.9-67.3c0-38.3,31-69.8,82.1-69.8c24.1,0,45.2,6.9,58.5,14.7l-10.8,31.5c-9.3-5.9-26.5-13.8-48.6-13.8
		c-25.6,0-39.8,14.7-39.8,32.4c0,19.7,14.3,28.5,45.2,40.3c41.3,15.7,62.4,36.4,62.4,71.7c0,41.8-32.4,71.3-88.9,71.3
		c-26,0-50.1-6.4-66.8-16.2L408,450z"/>
</g>
</svg>
