<?xml version="1.0" encoding="utf-8"?>
<!-- Generator: Adobe Illustrator 23.0.3, SVG Export Plug-In . SVG Version: 6.00 Build 0)  -->
<svg version="1.1" id="Layer_1" xmlns="http://www.w3.org/2000/svg" xmlns:xlink="http://www.w3.org/1999/xlink" x="0px" y="0px"
	 viewBox="0 0 100 100" style="enable-background:new 0 0 100 100;" xml:space="preserve">
<style type="text/css">
	.st0{fill-rule:evenodd;clip-rule:evenodd;fill:#FFFFFF;filter:url(#Adobe_OpacityMaskFilter);}
	.st1{mask:url(#mask0_1_);}
	.st2{opacity:0.25;}
	.st3{opacity:0.25;fill-rule:evenodd;clip-rule:evenodd;enable-background:new    ;}
</style>
<g>
	<g>
		<defs>
			<filter id="Adobe_OpacityMaskFilter" filterUnits="userSpaceOnUse" x="0" y="0" width="100.1" height="100">
				<feColorMatrix  type="matrix" values="1 0 0 0 0  0 1 0 0 0  0 0 1 0 0  0 0 0 1 0"/>
			</filter>
		</defs>
		<mask maskUnits="userSpaceOnUse" x="0" y="0" width="100.1" height="100" id="mask0_1_">
			<path class="st0" d="M70.9,99.6c1.6,0.6,3.4,0.6,5-0.2l20.6-10c2.2-1,3.5-3.2,3.5-5.7V16.2c0-2.4-1.4-4.6-3.5-5.7l-20.6-10
				c-2.1-1-4.5-0.8-6.4,0.6c-0.3,0.2-0.5,0.4-0.7,0.6L29.4,38L12.2,24.9c-1.6-1.2-3.8-1.1-5.3,0.2l-5.5,5c-1.8,1.7-1.8,4.5,0,6.2
				L16.3,50L1.4,63.7c-1.8,1.7-1.8,4.5,0,6.2l5.5,5c1.5,1.4,3.7,1.5,5.3,0.2L29.4,62l39.4,36.1C69.4,98.8,70.2,99.3,70.9,99.6z
				 M75,27.2L45.1,50L75,72.8V27.2z"/>
		</mask>
		<g class="st1">
			<path d="M96.5,10.6l-20.6-10c-2.4-1.2-5.2-0.7-7.1,1.2L1.3,63.7c-1.8,1.7-1.8,4.5,0,6.2l5.5,5c1.5,1.4,3.7,1.5,5.3,0.2l81.2-61.9
				c2.7-2.1,6.6-0.1,6.6,3.3v-0.2C100,13.8,98.7,11.6,96.5,10.6z"/>
			<g>
				<path d="M96.5,89.4l-20.6,10c-2.4,1.2-5.2,0.7-7.1-1.2L1.3,36.3c-1.8-1.7-1.8-4.5,0-6.2l5.5-5c1.5-1.4,3.7-1.5,5.3-0.2
					l81.2,61.9c2.7,2.1,6.6,0.1,6.6-3.3v0.2C100,86.2,98.7,88.4,96.5,89.4z"/>
			</g>
			<g>
				<path d="M75.9,99.4c-2.4,1.2-5.2,0.7-7.1-1.2c2.3,2.3,6.3,0.7,6.3-2.6V4.4c0-3.3-3.9-4.9-6.3-2.6c1.9-1.9,4.7-2.4,7.1-1.2
					l20.6,10c2.2,1,3.5,3.2,3.5,5.7v67.5c0,2.4-1.4,4.6-3.5,5.7L75.9,99.4z"/>
			</g>
			<g class="st2">
				<path class="st3" d="M70.9,99.6c1.6,0.6,3.4,0.6,5-0.2l20.6-10c2.2-1,3.5-3.2,3.5-5.7V16.2c0-2.4-1.4-4.6-3.5-5.7l-20.6-10
					c-2.1-1-4.5-0.8-6.4,0.6c-0.3,0.2-0.5,0.4-0.7,0.6L29.3,38L12.2,24.9c-1.6-1.2-3.8-1.1-5.3,0.2l-5.5,5c-1.8,1.7-1.8,4.5,0,6.2
					L16.2,50L1.3,63.7c-1.8,1.7-1.8,4.5,0,6.2l5.5,5c1.5,1.4,3.7,1.5,5.3,0.2L29.3,62l39.4,36.1C69.4,98.8,70.1,99.3,70.9,99.6z
					 M75,27.2L45.1,50L75,72.8V27.2z"/>
			</g>
		</g>
	</g>
</g>
<g>
	<text transform="matrix(1 0 0 1 297.6382 420.9452)" style="font-family:'MyriadPro-Regular'; font-size:12px;">vscode</text>
</g>
</svg>
